


<svg xmlns="http://www.w3.org/2000/svg">

    <symbol id="svg-basket" viewBox="0 0 100 100">
        <path d="M42.98,11c0.49,0,0.99,0.15,1.42,0.45c1.11,0.78,1.38,2.32,0.6,3.43l-16.2,23.01h39.18L48.16,23.93
          c-1.11-0.78-1.38-2.32-0.6-3.43c0.48-0.68,1.24-1.04,2.02-1.04c0.49,0,0.99,0.15,1.42,0.45l25.53,17.98h7.91
          c4.79,0,8.26,4.57,6.98,9.19L80.72,85.39C80.14,87.47,78.18,89,75.95,89H23.93c-2.23,0-4.19-1.53-4.77-3.61L8.61,47.54
          c-1.35-4.85,2.29-9.65,7.33-9.65h6.82l18.2-25.84C41.44,11.36,42.21,11,42.98,11 M71.47,76.47c0.06,0,0.12,0,0.18,0
          c1.46-0.08,2.66-1.22,3.06-2.63l4.27-15.2c0.6-2.15-1.01-4.29-3.25-4.29h-1c-1.6,0-2.99,1.13-3.31,2.7l-3.16,15.47
          C67.83,74.56,69.39,76.47,71.47,76.47 M57.62,76.47c0.2,0,0.4-0.02,0.61-0.05c1.5-0.26,2.58-1.59,2.76-3.1l1.88-15.08
          c0.26-2.07-1.35-3.89-3.44-3.89h-0.99c-1.85,0-3.37,1.45-3.46,3.3l-0.74,15.28C54.15,74.86,55.69,76.47,57.62,76.47 M43.74,76.47
          c1.91,0,3.44-1.58,3.38-3.49l-0.48-15.28c-0.06-1.87-1.59-3.36-3.47-3.36h-0.99c-2.06,0-3.67,1.79-3.45,3.84l1.63,15.08
          c0.16,1.51,1.23,2.86,2.72,3.14C43.31,76.45,43.53,76.47,43.74,76.47 M29.88,76.47c2.07,0,3.63-1.88,3.25-3.92l-2.9-15.44
          c-0.3-1.6-1.7-2.77-3.33-2.77h-1c-2.22,0-3.85,2.11-3.28,4.26l4.01,15.18c0.38,1.42,1.56,2.59,3.03,2.68
          C29.73,76.47,29.81,76.47,29.88,76.47 M42.98,5C42.98,5,42.98,5,42.98,5c-2.75,0-5.34,1.34-6.92,3.59l-16.41,23.3h-3.71
          c-4.29,0-8.24,1.96-10.84,5.38c-2.6,3.42-3.42,7.75-2.27,11.89l10.56,37.85C14.7,91.71,19.04,95,23.93,95h52.02
          c4.89,0,9.23-3.29,10.54-7.99l10.69-38.32c1.12-4.02,0.32-8.24-2.21-11.57c-2.53-3.33-6.37-5.23-10.55-5.23h-6.01L54.45,15
          c-0.92-0.65-1.93-1.1-3.01-1.34c0.01-0.55-0.03-1.1-0.12-1.65c-0.39-2.23-1.62-4.17-3.47-5.47C46.42,5.53,44.73,5,42.98,5L42.98,5z
           M40.35,31.89l2.99-4.24c0.4,0.44,0.86,0.84,1.36,1.19l4.33,3.05H40.35L40.35,31.89z"/>
    </symbol>
</svg>