


<svg xmlns="http://www.w3.org/2000/svg">

    <symbol id="svg-basket" viewBox="0 0 100 100">
        <path d="M42.98,11c0.49,0,0.99,0.15,1.42,0.45c1.11,0.78,1.38,2.32,0.6,3.43l-16.2,23.01h39.18L48.16,23.93
          c-1.11-0.78-1.38-2.32-0.6-3.43c0.48-0.68,1.24-1.04,2.02-1.04c0.49,0,0.99,0.15,1.42,0.45l25.53,17.98h7.91
          c4.79,0,8.26,4.57,6.98,9.19L80.72,85.39C80.14,87.47,78.18,89,75.95,89H23.93c-2.23,0-4.19-1.53-4.77-3.61L8.61,47.54
          c-1.35-4.85,2.29-9.65,7.33-9.65h6.82l18.2-25.84C41.44,11.36,42.21,11,42.98,11 M71.47,76.47c0.06,0,0.12,0,0.18,0
          c1.46-0.08,2.66-1.22,3.06-2.63l4.27-15.2c0.6-2.15-1.01-4.29-3.25-4.29h-1c-1.6,0-2.99,1.13-3.31,2.7l-3.16,15.47
          C67.83,74.56,69.39,76.47,71.47,76.47 M57.62,76.47c0.2,0,0.4-0.02,0.61-0.05c1.5-0.26,2.58-1.59,2.76-3.1l1.88-15.08
          c0.26-2.07-1.35-3.89-3.44-3.89h-0.99c-1.85,0-3.37,1.45-3.46,3.3l-0.74,15.28C54.15,74.86,55.69,76.47,57.62,76.47 M43.74,76.47
          c1.91,0,3.44-1.58,3.38-3.49l-0.48-15.28c-0.06-1.87-1.59-3.36-3.47-3.36h-0.99c-2.06,0-3.67,1.79-3.45,3.84l1.63,15.08
          c0.16,1.51,1.23,2.86,2.72,3.14C43.31,76.45,43.53,76.47,43.74,76.47 M29.88,76.47c2.07,0,3.63-1.88,3.25-3.92l-2.9-15.44
          c-0.3-1.6-1.7-2.77-3.33-2.77h-1c-2.22,0-3.85,2.11-3.28,4.26l4.01,15.18c0.38,1.42,1.56,2.59,3.03,2.68
          C29.73,76.47,29.81,76.47,29.88,76.47 M42.98,5C42.98,5,42.98,5,42.98,5c-2.75,0-5.34,1.34-6.92,3.59l-16.41,23.3h-3.71
          c-4.29,0-8.24,1.96-10.84,5.38c-2.6,3.42-3.42,7.75-2.27,11.89l10.56,37.85C14.7,91.71,19.04,95,23.93,95h52.02
          c4.89,0,9.23-3.29,10.54-7.99l10.69-38.32c1.12-4.02,0.32-8.24-2.21-11.57c-2.53-3.33-6.37-5.23-10.55-5.23h-6.01L54.45,15
          c-0.92-0.65-1.93-1.1-3.01-1.34c0.01-0.55-0.03-1.1-0.12-1.65c-0.39-2.23-1.62-4.17-3.47-5.47C46.42,5.53,44.73,5,42.98,5L42.98,5z
           M40.35,31.89l2.99-4.24c0.4,0.44,0.86,0.84,1.36,1.19l4.33,3.05H40.35L40.35,31.89z"/>
    </symbol>
    <symbol id="svg-list">
        <g stroke="none" stroke-width="1" fill="none" fill-rule="evenodd">
			<rect x="0" y="0"></rect>
			<path d="M8,3 L8,3.5 C8,4.32842712 8.67157288,5 9.5,5 L14.5,5 C15.3284271,5 16,4.32842712 16,3.5 L16,3 L18,3 C19.1045695,3 20,3.8954305 20,5 L20,21 C20,22.1045695 19.1045695,23 18,23 L6,23 C4.8954305,23 4,22.1045695 4,21 L4,5 C4,3.8954305 4.8954305,3 6,3 L8,3 Z" fill="#000000" opacity="0.3"></path>
			<path d="M11,2 C11,1.44771525 11.4477153,1 12,1 C12.5522847,1 13,1.44771525 13,2 L14.5,2 C14.7761424,2 15,2.22385763 15,2.5 L15,3.5 C15,3.77614237 14.7761424,4 14.5,4 L9.5,4 C9.22385763,4 9,3.77614237 9,3.5 L9,2.5 C9,2.22385763 9.22385763,2 9.5,2 L11,2 Z" fill="#000000"></path>
			<rect fill="#000000" opacity="0.3" x="7" y="10" width="5" height="2" rx="1"></rect>
			<rect fill="#000000" opacity="0.3" x="7" y="14" width="9" height="2" rx="1"></rect>
		</g>
    </symbol>
    <symbol id="svg-transaction">
        <g stroke="none" stroke-width="1" fill="none" fill-rule="evenodd">
			<rect x="0" y="0"></rect>
			<path d="M6,9 L6,15 C6,16.6568542 7.34314575,18 9,18 L15,18 L15,18.8181818 C15,20.2324881 14.2324881,21 12.8181818,21 L5.18181818,21 C3.76751186,21 3,20.2324881 3,18.8181818 L3,11.1818182 C3,9.76751186 3.76751186,9 5.18181818,9 L6,9 Z M17,16 L17,10 C17,8.34314575 15.6568542,7 14,7 L8,7 L8,6.18181818 C8,4.76751186 8.76751186,4 10.1818182,4 L17.8181818,4 C19.2324881,4 20,4.76751186 20,6.18181818 L20,13.8181818 C20,15.2324881 19.2324881,16 17.8181818,16 L17,16 Z" fill="#000000" fill-rule="nonzero" opacity="0.3"></path>
			<path d="M9.27272727,9 L13.7272727,9 C14.5522847,9 15,9.44771525 15,10.2727273 L15,14.7272727 C15,15.5522847 14.5522847,16 13.7272727,16 L9.27272727,16 C8.44771525,16 8,15.5522847 8,14.7272727 L8,10.2727273 C8,9.44771525 8.44771525,9 9.27272727,9 Z" fill="#000000"></path>
		</g>
    </symbol>
    <symbol id="svg-clock">
        <g stroke="none" stroke-width="1" fill="none" fill-rule="evenodd">
			<rect x="0" y="0"></rect>
			<path d="M12,22 C7.02943725,22 3,17.9705627 3,13 C3,8.02943725 7.02943725,4 12,4 C16.9705627,4 21,8.02943725 21,13 C21,17.9705627 16.9705627,22 12,22 Z" fill="#000000" opacity="0.3"></path>
			<path d="M11.9630156,7.5 L12.0475062,7.5 C12.3043819,7.5 12.5194647,7.69464724 12.5450248,7.95024814 L13,12.5 L16.2480695,14.3560397 C16.403857,14.4450611 16.5,14.6107328 16.5,14.7901613 L16.5,15 C16.5,15.2109164 16.3290185,15.3818979 16.1181021,15.3818979 C16.0841582,15.3818979 16.0503659,15.3773725 16.0176181,15.3684413 L11.3986612,14.1087258 C11.1672824,14.0456225 11.0132986,13.8271186 11.0316926,13.5879956 L11.4644883,7.96165175 C11.4845267,7.70115317 11.7017474,7.5 11.9630156,7.5 Z" fill="#000000"></path>
		</g>
    </symbol>
    <symbol id="svg-box">
        <g stroke="none" stroke-width="1" fill="none" fill-rule="evenodd">
            <rect x="0" y="0"></rect>
            <path d="M4,9.67471899 L10.880262,13.6470401 C10.9543486,13.689814 11.0320333,13.7207107 11.1111111,13.740321 L11.1111111,21.4444444 L4.49070127,17.526473 C4.18655139,17.3464765 4,17.0193034 4,16.6658832 L4,9.67471899 Z M20,9.56911707 L20,16.6658832 C20,17.0193034 19.8134486,17.3464765 19.5092987,17.526473 L12.8888889,21.4444444 L12.8888889,13.6728275 C12.9050191,13.6647696 12.9210067,13.6561758 12.9368301,13.6470401 L20,9.56911707 Z" fill="#000000"></path>
            <path d="M4.21611835,7.74669402 C4.30015839,7.64056877 4.40623188,7.55087574 4.5299008,7.48500698 L11.5299008,3.75665466 C11.8237589,3.60013944 12.1762411,3.60013944 12.4700992,3.75665466 L19.4700992,7.48500698 C19.5654307,7.53578262 19.6503066,7.60071528 19.7226939,7.67641889 L12.0479413,12.1074394 C11.9974761,12.1365754 11.9509488,12.1699127 11.9085461,12.2067543 C11.8661433,12.1699127 11.819616,12.1365754 11.7691509,12.1074394 L4.21611835,7.74669402 Z" fill="#000000" opacity="0.3"></path>
        </g>
    </symbol>
    <symbol id="svg-dashboard">
        <g stroke="none" stroke-width="1" fill="none" fill-rule="evenodd">
            <rect x="0" y="0"></rect>
            <path d="M5.5,4 L9.5,4 C10.3284271,4 11,4.67157288 11,5.5 L11,6.5 C11,7.32842712 10.3284271,8 9.5,8 L5.5,8 C4.67157288,8 4,7.32842712 4,6.5 L4,5.5 C4,4.67157288 4.67157288,4 5.5,4 Z M14.5,16 L18.5,16 C19.3284271,16 20,16.6715729 20,17.5 L20,18.5 C20,19.3284271 19.3284271,20 18.5,20 L14.5,20 C13.6715729,20 13,19.3284271 13,18.5 L13,17.5 C13,16.6715729 13.6715729,16 14.5,16 Z" fill="#000000"></path>
            <path d="M5.5,10 L9.5,10 C10.3284271,10 11,10.6715729 11,11.5 L11,18.5 C11,19.3284271 10.3284271,20 9.5,20 L5.5,20 C4.67157288,20 4,19.3284271 4,18.5 L4,11.5 C4,10.6715729 4.67157288,10 5.5,10 Z M14.5,4 L18.5,4 C19.3284271,4 20,4.67157288 20,5.5 L20,12.5 C20,13.3284271 19.3284271,14 18.5,14 L14.5,14 C13.6715729,14 13,13.3284271 13,12.5 L13,5.5 C13,4.67157288 13.6715729,4 14.5,4 Z" fill="#000000" opacity="0.3"></path>
        </g>
    </symbol>
    <symbol id="svg-billing"
        viewBox="0 0 512.001 512.001">
        <g>
            <g>
                <path d="M432.736,0H79.268c-8.284,0-15,6.716-15,15v437.816c0,3.978,1.581,7.794,4.393,10.607l44.184,44.184
                    c5.858,5.858,15.355,5.858,21.214,0l33.577-33.577l33.575,33.577c2.813,2.813,6.628,4.394,10.606,4.394
                    c3.978,0,7.794-1.58,10.607-4.394L256,474.03l33.577,33.577c2.813,2.813,6.629,4.394,10.606,4.394
                    c3.978,0,7.794-1.58,10.607-4.394l33.576-33.577l33.576,33.577c2.93,2.929,6.767,4.394,10.607,4.394
                    c3.838,0,7.678-1.465,10.606-4.394l44.184-44.184c2.813-2.813,4.394-6.628,4.394-10.607V15C447.736,6.716,441.019,0,432.736,0z
                    M240.999,112.671V95.334c0-8.284,6.717-15,15-15c8.285,0,15,6.716,15,15v17.133h17.135c8.283,0,15,6.716,15,15s-6.717,15-15,15
                    H245.29c-9.447,0-17.133,7.686-17.133,17.133c0,9.448,7.686,17.135,17.133,17.135h21.423c25.989,0,47.134,21.143,47.134,47.133
                    c0,24.543-18.86,44.756-42.848,46.93v17.337c0,8.284-6.715,15-15,15c-8.283,0-15-6.716-15-15V271h-17.133c-8.283,0-15-6.716-15-15
                    s6.717-15,15-15h42.847c9.447,0,17.134-7.686,17.134-17.133c0-9.447-7.686-17.133-17.134-17.133H245.29
                    c-25.99,0-47.133-21.145-47.133-47.135C198.158,135.057,217.015,114.846,240.999,112.671z M336.335,383.467H175.668
                    c-8.284,0-15-6.716-15-15s6.716-15,15-15h160.667c8.283,0,15,6.716,15,15S344.618,383.467,336.335,383.467z"/>
            </g>
        </g>
    </symbol>
    <symbol id="svg-arrow-left" xmlns="http://www.w3.org/2000/svg" viewBox="0 0 492 492">
        <path d="M198.608,246.104L382.664,62.04c5.068-5.056,7.856-11.816,7.856-19.024c0-7.212-2.788-13.968-7.856-19.032l-16.128-16.12    C361.476,2.792,354.712,0,347.504,0s-13.964,2.792-19.028,7.864L109.328,227.008c-5.084,5.08-7.868,11.868-7.848,19.084    c-0.02,7.248,2.76,14.028,7.848,19.112l218.944,218.932c5.064,5.072,11.82,7.864,19.032,7.864c7.208,0,13.964-2.792,19.032-7.864    l16.124-16.12c10.492-10.492,10.492-27.572,0-38.06L198.608,246.104z"/>
    </symbol>

    <symbol id="svg-arrow-right" xmlns="http://www.w3.org/2000/svg" viewBox="0 0 492.004 492.004">
        <path d="M382.678,226.804L163.73,7.86C158.666,2.792,151.906,0,144.698,0s-13.968,2.792-19.032,7.86l-16.124,16.12    c-10.492,10.504-10.492,27.576,0,38.064L293.398,245.9l-184.06,184.06c-5.064,5.068-7.86,11.824-7.86,19.028    c0,7.212,2.796,13.968,7.86,19.04l16.124,16.116c5.068,5.068,11.824,7.86,19.032,7.86s13.968-2.792,19.032-7.86L382.678,265    c5.076-5.084,7.864-11.872,7.848-19.088C390.542,238.668,387.754,231.884,382.678,226.804z"/>
    </symbol>

    <symbol id="svg-menu" viewBox="0 0 24 24">
        <path d="M 2 5 L 2 7 L 22 7 L 22 5 L 2 5 z M 2 11 L 2 13 L 22 13 L 22 11 L 2 11 z M 2 17 L 2 19 L 22 19 L 22 17 L 2 17 z"/>
    </symbol>
    <symbol id="svg-pencil" viewBox="0 0 432.544 432.544">
        <path d="M0,313.775v118.77h118.771l237.541-237.541L237.539,76.232L0,313.775z M103.638,395.999L103.638,395.999l-30.55,0.004
			v-36.546H36.545v-30.553l25.981-25.981l67.093,67.092L103.638,395.999z M246.683,124.77c4.182,0,6.276,2.095,6.276,6.28
			c0,1.906-0.664,3.521-1.999,4.856L96.214,290.651c-1.333,1.328-2.952,1.995-4.854,1.995c-4.184,0-6.279-2.098-6.279-6.279
			c0-1.906,0.666-3.521,1.997-4.856l154.747-154.743C243.154,125.436,244.773,124.77,246.683,124.77z"/>
        <path d="M421.976,77.654l-67.091-66.806C347.653,3.619,338.992,0,328.903,0c-10.283,0-18.842,3.619-25.693,10.848l-47.394,47.109
			l118.773,118.77l47.394-47.392c7.042-7.043,10.561-15.608,10.561-25.697C432.54,93.743,429.022,85.08,421.976,77.654z"/>
    </symbol>

    <symbol id="svg-trash" viewBox="0 0 512 512">
        <path id="XMLID_1089_"
              d="m428.332 135.275-11.167-33.466c-2.248-6.736-8.552-11.278-15.653-11.278h-291.024c-7.101 0-13.405 4.543-15.653 11.278l-11.167 33.466c-2.53 7.582 3.113 15.414 11.106 15.414h322.451c7.994 0 13.637-7.832 11.107-15.414z"/>
        <path id="XMLID_835_"
              d="m135.615 491.767c1.28 11.519 11.016 20.233 22.606 20.233h193.718c11.59 0 21.326-8.715 22.606-20.233l34.565-311.077h-308.06z"/>
        <path id="XMLID_831_"
              d="m225.89 42.998c0-7.167 5.831-12.998 12.998-12.998h44.189c7.167 0 12.998 5.831 12.998 12.998v17.533h30v-17.533c0-23.709-19.289-42.998-42.998-42.998h-44.189c-23.709 0-42.998 19.289-42.998 42.998v17.533h30z"/>
    </symbol>
</svg>